<?xml version="1.0" encoding="utf-8"?>
<!-- Generator: Adobe Illustrator 24.0.0, SVG Export Plug-In . SVG Version: 6.00 Build 0)  -->
<svg version="1.1" id="Layer_1" xmlns="http://www.w3.org/2000/svg" xmlns:xlink="http://www.w3.org/1999/xlink" x="0px" y="0px"
	 viewBox="0 0 1920 1080" style="enable-background:new 0 0 1920 1080;" xml:space="preserve">
<style type="text/css">
	.st0{fill:#FFFFFF;}
</style>
<g>
	<path class="st0" d="M740.75,610.19c-7.24-10.35-13.63-19.49-20.81-29.76c159.59-152.44,318.77-304.49,479.63-458.14
		c0,49.1,0,95.76,0,143.14C1047.17,379.94,894.5,494.66,740.75,610.19z"/>
	<path class="st0" d="M728.06,785.1c7.26-10.71,13.16-19.42,18.72-27.61c151.55,5.52,301.93,10.99,453.29,16.5
		c0,40.58,0,80.72,0,122.28C1043.01,859.28,886.63,822.45,728.06,785.1z"/>
	<path class="st0" d="M778.97,694.59c0-11.45,0-20.7,0-31.74c113.41-53.63,227.67-107.66,343.88-162.61
		c6.66,39.51,13.09,77.62,19.8,117.43C1021.51,643.29,900.97,668.79,778.97,694.59z"/>
</g>
</svg>
