<svg width="56" height="47" viewBox="0 0 56 47" fill="none" xmlns="http://www.w3.org/2000/svg">
<g clip-path="url(#clip0_213_100)">
<path d="M6.17305 9.78659C4.71276 9.78659 3.35203 9.78659 1.94706 9.78659C1.94706 21.5505 1.94706 33.2699 1.94706 45.0449C2.22363 45.056 2.47807 45.0894 2.72145 45.0894C8.80601 45.0894 14.8906 45.0894 20.9751 45.0894C21.2185 45.0894 21.4619 45.0782 21.6942 45.1227C22.2252 45.2227 22.546 45.667 22.4907 46.1558C22.4354 46.6223 22.0593 46.9556 21.5393 46.9778C21.4508 46.9778 21.3512 46.9778 21.2627 46.9778C14.6029 46.9778 7.95417 46.9778 1.29435 46.9778C1.18372 46.9778 1.07309 46.9778 0.962465 46.9778C0.464638 46.9445 0.143817 46.6779 0.0553141 46.1669C0.0110628 45.9003 0.0110628 45.6115 0.0110628 45.3337C0 33.3921 0 21.4394 0 9.47555C0 8.00923 0.232319 7.77595 1.70367 7.77595C2.94271 7.77595 4.17068 7.77595 5.40972 7.77595C5.63098 7.77595 5.84117 7.75374 6.11774 7.74263C6.13987 7.48713 6.16199 7.27607 6.16199 7.06501C6.16199 5.12103 6.16199 3.17704 6.16199 1.23306C6.16199 0.388812 6.49388 1.48267e-05 7.31252 0.0111233C11.9921 0.0666657 16.6385 0.388812 21.1189 1.86624C23.0217 2.49942 24.825 3.32145 26.3848 4.63225C26.9712 5.13213 27.5132 5.68756 28.0996 6.25409C28.1217 6.24298 28.2102 6.20966 28.2544 6.14301C29.7147 4.39897 31.6175 3.27702 33.6752 2.42166C36.2639 1.34414 38.9854 0.733175 41.7621 0.444354C43.9968 0.211076 46.2426 0.144425 48.4883 0.0111233C48.7428 1.48267e-05 49.0194 0.0222318 49.2517 0.1111C49.7495 0.299944 49.8823 0.722066 49.8823 1.23306C49.8712 3.15482 49.8823 5.0877 49.8823 7.00947C49.8823 7.23164 49.8823 7.4427 49.8823 7.72041C50.1478 7.74263 50.358 7.77595 50.5682 7.78706C51.9289 7.78706 53.3007 7.78706 54.6614 7.78706C55.7013 7.78706 55.9889 8.07588 55.9889 9.09786C55.9889 21.3172 55.9779 33.5365 55.9779 45.7559C55.9779 46.7667 55.7234 47.0222 54.6946 47.0222C47.8688 47.0222 41.0541 47.0222 34.2284 47.0222C34.0845 47.0222 33.9297 47.0333 33.7859 47.0111C33.3102 46.9667 32.9893 46.6556 32.934 46.2113C32.8787 45.7336 33.1221 45.3226 33.5978 45.1893C33.8412 45.1227 34.1067 45.1227 34.3611 45.1227C40.6448 45.1227 46.9395 45.1227 53.2232 45.1116C53.4777 45.1116 53.7321 45.0894 54.0308 45.0782C54.0308 33.3255 54.0308 21.6171 54.0308 9.7977C52.6701 9.76437 51.3315 9.78659 49.9155 9.78659C49.8933 10.1198 49.8712 10.3976 49.8712 10.6642C49.8712 19.4399 49.8601 28.2156 49.8601 36.9913C49.8601 37.1246 49.8601 37.2468 49.8601 37.3801C49.8491 38.3465 49.5282 38.6686 48.5547 38.6686C47.8135 38.6798 47.0834 38.6575 46.3422 38.702C43.0786 38.8686 39.8372 39.1796 36.6843 40.1239C34.8368 40.6793 33.0668 41.4013 31.518 42.5899C30.5113 43.3564 29.6373 44.2451 29.1837 45.4781C28.9514 46.1002 28.3983 46.1336 27.8451 46.1113C27.2809 46.1002 26.949 45.8781 26.7942 45.3782C26.4733 44.2784 25.7764 43.4675 24.9245 42.7566C23.2762 41.3791 21.3181 40.6126 19.2825 40.035C17.081 39.4018 14.8242 39.0352 12.5342 38.8908C10.8637 38.7908 9.18214 38.7242 7.51166 38.6686C6.46069 38.6353 6.16199 38.3576 6.16199 37.3134C6.16199 28.4266 6.16199 19.5398 6.15093 10.6531C6.17305 10.3753 6.17305 10.1198 6.17305 9.78659ZM8.10905 36.6913C8.30818 36.7136 8.42987 36.7358 8.55156 36.7469C10.3327 36.858 12.1249 36.9246 13.8949 37.0912C16.5279 37.3356 19.1055 37.8577 21.6057 38.7686C23.5417 39.4796 25.3449 40.4349 26.8384 41.9012C26.8827 41.9457 26.9601 41.9568 27.0707 42.0123C27.0707 41.7679 27.0707 41.5902 27.0707 41.4124C27.0707 30.6705 27.0597 19.9397 27.0707 9.19784C27.0707 8.63131 26.9158 8.15364 26.6171 7.68709C25.9534 6.67621 25.0352 5.93195 24.0284 5.30987C22.0371 4.07683 19.8356 3.39921 17.5788 2.91044C15.2114 2.39945 12.8107 2.16617 10.3991 2.03287C9.65784 1.98843 8.90557 2.02176 8.10905 2.02176C8.10905 13.5968 8.10905 25.1163 8.10905 36.6913ZM47.9352 1.98843C47.6476 1.98843 47.4374 1.98843 47.2161 1.98843C44.904 2.01065 42.614 2.2106 40.335 2.58829C37.868 2.99931 35.4674 3.62138 33.2216 4.75445C31.7614 5.49871 30.4449 6.42072 29.4382 7.76485C29.1063 8.20918 28.9625 8.68685 28.9625 9.25338C28.9735 15.9962 28.9625 22.728 28.9625 29.4708C28.9625 33.4699 28.9625 37.4689 28.9625 41.468C28.9625 41.679 28.9846 41.879 28.9957 42.1123C29.7922 41.5124 30.4781 40.9237 31.2303 40.4349C33.6752 38.8575 36.4077 38.0577 39.2398 37.5134C41.8728 37.0024 44.5279 36.7691 47.2051 36.7247C47.4374 36.7247 47.6697 36.6802 47.9352 36.658C47.9352 25.1163 47.9352 13.6079 47.9352 1.98843Z" fill="#080168"/>
<path d="M12.6559 11.575C16.1185 11.9416 19.4927 12.5859 22.723 13.8745C23.4864 14.1744 23.7408 14.8409 23.3204 15.3964C23.0107 15.7963 22.6345 15.8518 22.0261 15.663C20.5105 15.1853 19.017 14.6632 17.4792 14.3077C15.9526 13.9523 14.3927 13.7856 12.8439 13.5412C12.7001 13.519 12.5452 13.5079 12.4125 13.4746C11.8483 13.3413 11.5274 12.9081 11.6049 12.3971C11.6823 11.875 12.1248 11.5417 12.6559 11.575Z" fill="#080168"/>
<path d="M13.0984 19.0844C16.2292 19.4399 19.5701 20.0508 22.7562 21.3505C23.3757 21.606 23.6413 22.0948 23.4532 22.6058C23.243 23.1723 22.7452 23.3612 22.0814 23.139C21.0747 22.7946 20.068 22.4281 19.0391 22.1392C16.9925 21.5616 14.9127 21.2283 12.7997 20.9951C12.7665 20.9951 12.7222 20.9951 12.6891 20.984C11.9589 20.9062 11.5496 20.5174 11.5828 19.9286C11.6381 19.3288 12.0695 19.04 13.0984 19.0844Z" fill="#080168"/>
<path d="M12.8218 26.5271C16.2402 26.9048 19.5922 27.5269 22.7894 28.8265C23.4089 29.082 23.6523 29.5819 23.431 30.0929C23.2098 30.6261 22.712 30.8372 22.1035 30.5928C19.028 29.3709 15.8198 28.771 12.5563 28.4155C11.9589 28.3489 11.5717 27.9268 11.5938 27.4047C11.616 26.8603 12.0253 26.516 12.6559 26.5271C12.7112 26.516 12.7665 26.5271 12.8218 26.5271Z" fill="#080168"/>
<path d="M43.145 11.564C43.9194 11.5529 44.3619 11.9194 44.4172 12.4304C44.4725 12.9081 44.1517 13.3635 43.6207 13.4635C42.9127 13.5857 42.1936 13.6524 41.4856 13.7523C38.8858 14.1189 36.3414 14.7077 33.8965 15.6741C33.288 15.9185 32.757 15.7074 32.5579 15.1853C32.3477 14.6632 32.58 14.1522 33.1885 13.8967C35.2683 13.0192 37.4477 12.4638 39.6713 12.075C40.8993 11.875 42.1383 11.7084 43.145 11.564Z" fill="#080168"/>
<path d="M44.4283 19.9731C44.4393 20.5063 44.03 20.8951 43.3884 20.9839C42.0719 21.1728 40.7665 21.3283 39.4611 21.5616C37.6689 21.8837 35.9099 22.3614 34.2062 23.0279C34.0514 23.0834 33.8965 23.1612 33.7416 23.1945C33.1995 23.3278 32.7459 23.1168 32.5689 22.6391C32.3919 22.1725 32.5911 21.6615 33.0668 21.4283C33.4761 21.2283 33.9186 21.0728 34.35 20.9173C37.2485 19.9175 40.2465 19.351 43.2999 19.0399C43.9194 18.9844 44.4172 19.3954 44.4283 19.9731Z" fill="#080168"/>
<path d="M44.4172 27.4713C44.4062 27.9712 44.03 28.3267 43.4437 28.4267C41.4967 28.7488 39.5496 29.0265 37.6247 29.4375C36.4078 29.693 35.2351 30.1707 34.0403 30.5484C33.8522 30.6039 33.6531 30.6928 33.454 30.715C33.0557 30.7483 32.6575 30.4484 32.5358 30.0485C32.403 29.6153 32.569 29.1376 33.0115 28.9154C33.4761 28.6933 33.9629 28.5155 34.4496 28.3489C36.9277 27.4824 39.4943 26.9825 42.094 26.6382C42.5476 26.5826 43.0123 26.516 43.4658 26.516C44.0079 26.516 44.4283 26.9603 44.4172 27.4713Z" fill="#080168"/>
</g>
<defs>
<clipPath id="clip0_213_100">
<rect width="56" height="47" fill="white"/>
</clipPath>
</defs>
</svg>
