<?xml version="1.0" encoding="utf-8"?>
<!-- Generator: Adobe Illustrator 24.0.0, SVG Export Plug-In . SVG Version: 6.00 Build 0)  -->
<svg version="1.1" id="Layer_1" xmlns="http://www.w3.org/2000/svg" xmlns:xlink="http://www.w3.org/1999/xlink" x="0px" y="0px"
	 viewBox="0 0 1920 1080" style="enable-background:new 0 0 1920 1080;" xml:space="preserve">
<style type="text/css">
	.st0{fill:#FFFFFF;}
</style>
<g>
	<path class="st0" d="M1186.65,693.82c39.2,41,78.93,82.55,118.97,124.43c-46.19,48.62-102.06,87.29-169,108.29
		c-103.22,32.37-204.93,27.34-303.22-18.09c-85.27-39.41-146.59-103.49-184.59-189.63c-38.15-86.49-45.67-176.47-22.67-267.23
		c39.04-154.06,139.14-248.62,294.03-280.79c127.09-26.39,244.22-0.22,346.33,82.83c14.2,11.55,27.16,24.61,40.34,36.65
		c-41.01,40.95-81.38,81.27-122.82,122.65c-4.57-3.9-10.27-8.34-15.5-13.27c-87.42-82.5-215.84-79.92-294.97-23.72
		c-59.3,42.11-85.34,101.93-86.07,172.81c-0.84,81.07,29.04,148.7,100.1,191.37c75.96,45.6,155.27,46.18,232.93,2.99
		C1143.43,730.37,1163.01,711.69,1186.65,693.82z"/>
	<path class="st0" d="M1000.67,684.34c-72.56-0.01-129.72-57.65-130.05-131.13c-0.32-71.39,58.18-130.1,129.78-130.22
		c72.13-0.13,132.19,59.01,132.01,130C1132.21,625.74,1073.44,684.35,1000.67,684.34z"/>
</g>
</svg>
