<?xml version="1.0" encoding="utf-8"?>
<!-- Generator: Adobe Illustrator 24.0.0, SVG Export Plug-In . SVG Version: 6.00 Build 0)  -->
<svg version="1.1" id="Layer_1" xmlns="http://www.w3.org/2000/svg" xmlns:xlink="http://www.w3.org/1999/xlink" x="0px" y="0px"
	 viewBox="0 0 64 64" style="enable-background:new 0 0 64 64;" xml:space="preserve">
<style type="text/css">
	.st0{fill:#433F7A;}
	.st1{fill:#FE695B;}
	.st2{fill:#36C0E7;}
</style>
<g>
	<g>
		<g>
			<path class="st0" d="M9.7,39.47l5.56-14.74h3.01l5.56,14.74h-2.21l-1.37-3.52h-6.99l-1.33,3.52H9.7z M13.91,34.12
				c0.88,0,1.64,0,2.27,0s1.17,0.03,1.62,0.08c0.45,0.04,0.88,0.18,1.3,0.4c0.41,0.22,0.78,0.6,1.08,1.14l-3.43-9.16L13.91,34.12z"
				/>
			<path class="st0" d="M29.48,39.59c-0.77,0-1.51-0.11-2.21-0.33c-0.7-0.22-1.32-0.55-1.84-1c-0.53-0.45-0.94-1.01-1.25-1.68
				c-0.31-0.67-0.46-1.47-0.46-2.38c0-0.91,0.15-1.71,0.46-2.38c0.31-0.67,0.73-1.24,1.25-1.68c0.53-0.45,1.14-0.78,1.84-1
				c0.7-0.22,1.44-0.33,2.21-0.33c0.77,0,1.5,0.11,2.18,0.34c0.68,0.22,1.27,0.56,1.78,1c0.51,0.44,0.91,1,1.2,1.67
				c0.29,0.67,0.44,1.47,0.44,2.38c0,0.15,0,0.26,0,0.31c0,0.05-0.01,0.14-0.04,0.28h-9.18c0.15,1.05,0.56,1.84,1.22,2.36
				c0.66,0.52,1.47,0.77,2.44,0.76c0.81-0.01,1.53-0.17,2.14-0.46c0.61-0.29,1.06-0.84,1.36-1.62l1.9,0.25
				c-0.2,0.63-0.47,1.17-0.83,1.62c-0.36,0.45-0.78,0.81-1.25,1.08c-0.48,0.27-1,0.48-1.57,0.61
				C30.69,39.53,30.09,39.59,29.48,39.59z M29.52,30.43c-0.46,0-0.93,0.09-1.39,0.26c-0.46,0.18-0.87,0.44-1.22,0.8
				c-0.35,0.36-0.63,0.81-0.83,1.36c-0.2,0.55-0.28,1.19-0.22,1.94c0.08-0.28,0.18-0.51,0.28-0.67c0.11-0.17,0.23-0.29,0.38-0.38
				c0.15-0.08,0.32-0.14,0.51-0.17c0.19-0.03,0.41-0.04,0.66-0.04h5.43c-0.15-1.08-0.55-1.86-1.19-2.35
				C31.29,30.69,30.49,30.45,29.52,30.43z"/>
			<path class="st0" d="M36.32,31.76c0-0.95,0.22-1.66,0.67-2.13c0.45-0.46,1.16-0.69,2.13-0.69h4.23v1.94l-3.56,0.02
				c-0.29,0-0.53,0.01-0.72,0.04c-0.18,0.03-0.33,0.09-0.43,0.2c-0.11,0.11-0.18,0.26-0.21,0.47c-0.04,0.21-0.05,0.5-0.05,0.86v6.99
				h-2.06V31.76z"/>
			<path class="st0" d="M49.17,39.59c-0.77,0-1.51-0.11-2.22-0.33c-0.71-0.22-1.33-0.55-1.85-1c-0.53-0.45-0.95-1.01-1.26-1.68
				c-0.32-0.67-0.47-1.47-0.47-2.38c0-0.91,0.16-1.71,0.47-2.38c0.32-0.67,0.74-1.24,1.26-1.68c0.53-0.45,1.14-0.78,1.85-1
				c0.71-0.22,1.45-0.33,2.22-0.33c0.79,0,1.53,0.11,2.23,0.34c0.7,0.22,1.32,0.56,1.85,1c0.53,0.44,0.96,1,1.27,1.67
				C54.84,32.5,55,33.29,55,34.2c0,0.91-0.16,1.71-0.47,2.38c-0.32,0.67-0.74,1.24-1.27,1.68c-0.53,0.45-1.15,0.78-1.85,1
				C50.7,39.48,49.95,39.59,49.17,39.59z M49.17,30.56c-0.48,0-0.94,0.08-1.4,0.23c-0.46,0.15-0.86,0.39-1.2,0.69
				c-0.34,0.31-0.62,0.69-0.83,1.15c-0.21,0.46-0.32,0.98-0.32,1.57c0,0.62,0.1,1.15,0.29,1.61c0.2,0.46,0.46,0.83,0.8,1.13
				c0.34,0.29,0.73,0.52,1.19,0.66c0.46,0.15,0.94,0.22,1.46,0.22c0.51,0,0.99-0.07,1.44-0.22c0.46-0.15,0.86-0.37,1.2-0.67
				c0.34-0.3,0.62-0.68,0.82-1.14c0.2-0.46,0.31-0.99,0.31-1.59c0-0.59-0.1-1.11-0.31-1.57c-0.2-0.46-0.48-0.84-0.83-1.14
				c-0.35-0.3-0.75-0.53-1.2-0.69C50.15,30.64,49.67,30.56,49.17,30.56z"/>
		</g>
	</g>
	<g>
		<g>
			<path d="M14.05,44.27v-2.34h0.88c0.2,0,0.37,0.03,0.51,0.1c0.14,0.06,0.25,0.16,0.33,0.27c0.08,0.12,0.12,0.26,0.12,0.43
				c0,0.17-0.04,0.31-0.12,0.43s-0.19,0.21-0.33,0.28c-0.14,0.06-0.31,0.1-0.51,0.1h-0.74l0.11-0.12v0.86H14.05z M14.3,43.43
				l-0.11-0.12h0.73c0.23,0,0.41-0.05,0.53-0.15c0.12-0.1,0.18-0.24,0.18-0.43c0-0.19-0.06-0.33-0.18-0.43
				c-0.12-0.1-0.3-0.15-0.53-0.15h-0.73l0.11-0.12V43.43z"/>
			<path d="M19.12,44.29c-0.3,0-0.53-0.09-0.71-0.26c-0.17-0.17-0.26-0.43-0.26-0.76v-1.34h0.25v1.33c0,0.28,0.06,0.48,0.19,0.61
				c0.12,0.13,0.3,0.2,0.53,0.2c0.23,0,0.41-0.07,0.53-0.2c0.12-0.13,0.19-0.34,0.19-0.61v-1.33h0.24v1.34
				c0,0.34-0.09,0.59-0.26,0.76C19.65,44.2,19.42,44.29,19.12,44.29z"/>
			<path d="M22.57,44.27v-2.34h1.01c0.26,0,0.46,0.05,0.61,0.16c0.14,0.1,0.22,0.25,0.22,0.44c0,0.13-0.03,0.23-0.09,0.32
				c-0.06,0.09-0.14,0.15-0.24,0.2c-0.1,0.04-0.21,0.07-0.33,0.07l0.06-0.08c0.15,0,0.28,0.02,0.39,0.07
				c0.11,0.05,0.19,0.11,0.25,0.2c0.06,0.09,0.09,0.2,0.09,0.34c0,0.2-0.07,0.35-0.22,0.46c-0.15,0.11-0.37,0.16-0.66,0.16H22.57z
				 M22.81,44.07h0.83c0.21,0,0.36-0.04,0.47-0.11c0.11-0.07,0.16-0.18,0.16-0.34c0-0.15-0.05-0.26-0.16-0.33
				c-0.11-0.07-0.27-0.11-0.47-0.11h-0.85v-0.2h0.77c0.19,0,0.33-0.04,0.44-0.11c0.1-0.07,0.16-0.18,0.16-0.32
				c0-0.14-0.05-0.25-0.16-0.32c-0.1-0.07-0.25-0.11-0.44-0.11h-0.75V44.07z"/>
			<path d="M26.83,44.27v-2.34h0.25v2.13h1.31v0.21H26.83z"/>
			<path d="M30.54,44.27v-2.34h0.25v2.34H30.54z"/>
			<path d="M33.93,44.29c-0.17,0-0.34-0.03-0.5-0.09c-0.16-0.06-0.28-0.13-0.37-0.22l0.1-0.19c0.08,0.08,0.19,0.15,0.33,0.2
				s0.29,0.08,0.44,0.08c0.15,0,0.27-0.02,0.36-0.06c0.09-0.04,0.16-0.09,0.2-0.15c0.04-0.06,0.07-0.13,0.07-0.21
				c0-0.09-0.03-0.16-0.08-0.22c-0.05-0.06-0.12-0.1-0.21-0.13c-0.08-0.03-0.18-0.06-0.28-0.09c-0.1-0.02-0.21-0.05-0.31-0.08
				c-0.1-0.03-0.2-0.07-0.28-0.11c-0.09-0.05-0.16-0.11-0.21-0.19c-0.05-0.08-0.08-0.18-0.08-0.3c0-0.12,0.03-0.22,0.09-0.32
				c0.06-0.1,0.16-0.18,0.28-0.23c0.13-0.06,0.29-0.09,0.49-0.09c0.13,0,0.26,0.02,0.39,0.06c0.13,0.04,0.24,0.09,0.33,0.15
				l-0.08,0.2c-0.1-0.07-0.21-0.12-0.32-0.15c-0.11-0.03-0.22-0.05-0.33-0.05c-0.14,0-0.26,0.02-0.35,0.06
				c-0.09,0.04-0.16,0.09-0.2,0.15c-0.04,0.06-0.07,0.14-0.07,0.22c0,0.09,0.03,0.17,0.08,0.22c0.05,0.06,0.12,0.1,0.21,0.13
				c0.09,0.03,0.18,0.06,0.28,0.08s0.2,0.05,0.31,0.08c0.1,0.03,0.2,0.07,0.28,0.11c0.09,0.05,0.16,0.11,0.21,0.18
				c0.05,0.08,0.08,0.18,0.08,0.3c0,0.11-0.03,0.22-0.09,0.32c-0.06,0.1-0.16,0.18-0.29,0.23C34.3,44.26,34.13,44.29,33.93,44.29z"
				/>
			<path d="M37.08,44.27v-2.34h0.25v2.34H37.08z M37.3,43.19v-0.22h1.52v0.22H37.3z M38.79,44.27v-2.34h0.24v2.34H38.79z"/>
			<path d="M41.54,44.27v-2.34h0.25v2.34H41.54z"/>
			<path d="M44.29,44.27v-2.34h0.2l1.62,2.03H46v-2.03h0.24v2.34h-0.2l-1.61-2.03h0.11v2.03H44.29z"/>
			<path d="M49.78,44.29c-0.18,0-0.34-0.03-0.49-0.09c-0.15-0.06-0.28-0.14-0.39-0.25c-0.11-0.11-0.2-0.23-0.26-0.38
				c-0.06-0.14-0.09-0.3-0.09-0.47c0-0.17,0.03-0.33,0.09-0.47c0.06-0.14,0.15-0.27,0.26-0.38s0.24-0.19,0.39-0.25
				c0.15-0.06,0.32-0.09,0.49-0.09c0.18,0,0.34,0.03,0.49,0.08c0.15,0.06,0.27,0.14,0.38,0.25l-0.15,0.16
				c-0.1-0.1-0.21-0.17-0.32-0.21c-0.12-0.04-0.25-0.06-0.38-0.06c-0.14,0-0.28,0.02-0.4,0.07c-0.12,0.05-0.23,0.12-0.32,0.2
				c-0.09,0.09-0.16,0.19-0.21,0.31c-0.05,0.12-0.08,0.25-0.08,0.39c0,0.14,0.02,0.27,0.08,0.38c0.05,0.12,0.12,0.22,0.21,0.31
				c0.09,0.09,0.2,0.16,0.32,0.2c0.12,0.05,0.25,0.07,0.4,0.07c0.13,0,0.26-0.02,0.38-0.06c0.12-0.04,0.23-0.11,0.33-0.2l0.14,0.19
				c-0.11,0.1-0.24,0.17-0.39,0.22C50.09,44.26,49.94,44.29,49.78,44.29z M50.63,43.99l-0.24-0.03V43.1h0.24V43.99z"/>
		</g>
	</g>
	<g>
		<path class="st1" d="M22.64,23.6c0.54,1.33,1.07,2.66,1.61,3.99c-0.96-1.72-1.92-3.44-2.88-5.17c5.18,1.03,10.28,1.66,13.81,5.95
			c-1.78-1.37-3.77-2.38-5.92-3.02C27.15,24.71,25,24.21,22.64,23.6z"/>
		<path class="st2" d="M35.66,27.1c-1.67-0.99-3.25-2.07-4.95-2.91c-1.22-0.6-2.59-0.95-3.92-1.28c-0.03-0.01-0.08-0.02-0.14-0.04
			l0.08-2.05C30.28,22.2,33.46,23.91,35.66,27.1z"/>
		<path class="st1" d="M35.86,26.24c-1.03-0.99-1.94-1.94-2.93-2.8c-0.59-0.51-1.27-0.92-1.95-1.31c-0.32-0.19-0.57-0.33-0.74-0.46
			l0.07-1.8C32.79,21.45,34.78,23.36,35.86,26.24z"/>
		<path class="st1" d="M50.23,24.66c-0.44,1.31-0.89,2.61-1.33,3.92c0.9-1.67,1.79-3.33,2.69-5c-5.25,0.63-10.38,0.86-14.23,4.87
			c1.88-1.23,3.94-2.08,6.13-2.56C45.65,25.43,47.84,25.09,50.23,24.66z"/>
		<path class="st2" d="M36.99,27.15c1.74-0.86,3.4-1.81,5.16-2.52c1.27-0.5,2.66-0.74,4.01-0.98c0.03-0.01,0.08-0.01,0.14-0.03
			l0.08-2.05C42.73,22.67,39.43,24.14,36.99,27.15z"/>
		<path class="st1" d="M36.85,26.28c1.1-0.91,2.09-1.78,3.14-2.57c0.62-0.46,1.34-0.82,2.04-1.16c0.34-0.16,0.59-0.29,0.77-0.4
			l0.07-1.8C40.28,21.74,38.15,23.49,36.85,26.28z"/>
	</g>
</g>
</svg>
