<?xml version="1.0" encoding="utf-8"?>
<!-- Generator: Adobe Illustrator 24.0.0, SVG Export Plug-In . SVG Version: 6.00 Build 0)  -->
<svg version="1.1" id="Layer_1" xmlns="http://www.w3.org/2000/svg" xmlns:xlink="http://www.w3.org/1999/xlink" x="0px" y="0px"
	 viewBox="0 0 1920 1080" style="enable-background:new 0 0 1920 1080;" xml:space="preserve">
<style type="text/css">
	.st0{fill:#433F7A;}
	.st1{fill:#FE695B;}
	.st2{fill:#36C0E7;}
</style>
<g>
	<g>
		<g>
			<path class="st0" d="M54.12,819.95l222.34-589.54h120.43l222.35,589.54h-88.43l-54.74-140.65H196.45l-53.06,140.65H54.12z
				 M222.56,606.04c35.37,0,65.69,0,90.95,0s46.88,1.13,64.85,3.37c17.97,1.68,35.23,7.02,51.8,16
				c16.56,8.98,31.02,24.15,43.38,45.48L336.25,304.53L222.56,606.04z"/>
			<path class="st0" d="M844.95,825c-30.88,0-60.36-4.35-88.43-13.05c-28.08-8.7-52.64-22.03-73.69-40.01
				c-21.06-17.96-37.77-40.42-50.11-67.37c-12.36-26.95-18.52-58.67-18.52-95.17c0-36.49,6.17-68.22,18.52-95.17
				c12.34-26.95,29.06-49.4,50.11-67.38c21.06-17.96,45.61-31.29,73.69-40c28.07-8.7,57.55-13.06,88.43-13.06
				c30.87,0,59.93,4.5,87.17,13.48c27.23,8.99,50.95,22.32,71.17,40c20.21,17.69,36.22,40.01,48.01,66.96
				c11.79,26.95,17.68,58.68,17.68,95.17c0,6.18,0,10.25,0,12.21c0,1.97-0.56,5.77-1.68,11.37h-367.2
				c6.17,42.11,22.45,73.56,48.84,94.33c26.39,20.78,58.96,30.89,97.7,30.32c32.55-0.55,61.06-6.74,85.48-18.53
				c24.43-11.79,42.54-33.4,54.32-64.85l75.8,10.11c-7.87,25.27-18.95,46.89-33.27,64.85c-14.32,17.98-31.03,32.42-50.11,43.37
				c-19.1,10.95-40.01,19.1-62.74,24.43C893.38,822.33,869.65,825,844.95,825z M846.64,458.65c-18.53,0-37.06,3.51-55.59,10.53
				c-18.53,7.03-34.82,17.69-48.84,32.01c-14.04,14.32-25.14,32.42-33.27,54.32c-8.15,21.9-11.1,47.73-8.84,77.48
				c3.37-11.22,7.16-20.21,11.37-26.95c4.21-6.74,9.26-11.79,15.16-15.16c5.9-3.37,12.63-5.6,20.21-6.73
				c7.58-1.12,16.43-1.69,26.53-1.69h217.29c-6.19-43.23-22.04-74.53-47.58-93.9C917.51,469.18,885.37,459.21,846.64,458.65z"/>
			<path class="st0" d="M1118.65,511.71c0-38.18,8.97-66.53,26.95-85.06c17.96-18.53,46.32-27.79,85.06-27.79h169.28v77.48
				l-142.33,0.84c-11.79,0-21.35,0.57-28.63,1.68c-7.31,1.13-13.06,3.79-17.27,8c-4.21,4.21-7.02,10.53-8.42,18.95
				c-1.41,8.42-2.11,19.94-2.11,34.53v279.61h-82.53V511.71z"/>
			<path class="st0" d="M1632.39,825c-30.89,0-60.51-4.35-88.85-13.05c-28.36-8.7-53.06-22.03-74.12-40.01
				c-21.06-17.96-37.9-40.42-50.53-67.37c-12.64-26.95-18.95-58.67-18.95-95.17c0-36.49,6.31-68.22,18.95-95.17
				c12.63-26.95,29.47-49.4,50.53-67.38c21.06-17.96,45.76-31.29,74.12-40c28.34-8.7,57.96-13.06,88.85-13.06
				c31.44,0,61.19,4.5,89.28,13.48c28.07,8.99,52.76,22.32,74.11,40c21.34,17.69,38.32,40.01,50.95,66.96
				c12.64,26.95,18.95,58.68,18.95,95.17c0,36.5-6.31,68.22-18.95,95.17c-12.63,26.95-29.62,49.42-50.95,67.37
				c-21.35,17.98-46.04,31.31-74.11,40.01C1693.58,820.65,1663.83,825,1632.39,825z M1632.39,463.7c-19.1,0-37.77,3.09-56.01,9.26
				c-18.25,6.19-34.25,15.45-48,27.79c-13.76,12.36-24.85,27.66-33.27,45.9c-8.42,18.25-12.64,39.16-12.64,62.74
				c0,24.71,3.92,46.19,11.8,64.43c7.86,18.25,18.53,33.27,32,45.06c13.47,11.8,29.33,20.63,47.58,26.53
				c18.24,5.89,37.76,8.84,58.54,8.84c20.21,0,39.43-2.95,57.69-8.84c18.23-5.9,34.24-14.87,48-26.95
				c13.75-12.07,24.7-27.22,32.85-45.48c8.13-18.24,12.21-39.44,12.21-63.59c0-23.58-4.08-44.49-12.21-62.74
				c-8.14-18.24-19.24-33.4-33.27-45.48c-14.04-12.07-30.04-21.33-48.01-27.79C1671.69,466.94,1652.61,463.7,1632.39,463.7z"/>
		</g>
	</g>
	<g>
		<g>
			<path d="M228.16,1012.09v-93.63h35.05c7.93,0,14.76,1.27,20.46,3.81c5.7,2.54,10.1,6.2,13.17,10.97
				c3.08,4.77,4.62,10.54,4.62,17.32c0,6.6-1.54,12.28-4.62,17.05c-3.08,4.77-7.47,8.45-13.17,11.04
				c-5.71,2.59-12.53,3.88-20.46,3.88h-29.57l4.42-4.68v34.24H228.16z M238.06,978.65l-4.42-4.81h29.29
				c9.37,0,16.47-2.03,21.34-6.09c4.86-4.06,7.29-9.79,7.29-17.19c0-7.49-2.43-13.29-7.29-17.39c-4.86-4.1-11.97-6.15-21.34-6.15
				h-29.29l4.42-4.68V978.65z"/>
			<path d="M430.81,1012.89c-11.95,0-21.36-3.43-28.22-10.3c-6.87-6.87-10.3-17.03-10.3-30.5v-53.64h9.9v53.24
				c0,11.06,2.5,19.22,7.49,24.48c4.99,5.26,12.04,7.89,21.14,7.89c9.18,0,16.27-2.63,21.27-7.89c4.99-5.26,7.49-13.42,7.49-24.48
				v-53.24h9.64v53.64c0,13.47-3.42,23.63-10.24,30.5C452.15,1009.46,442.76,1012.89,430.81,1012.89z"/>
			<path d="M568.59,1012.09v-93.63h40.4c10.43,0,18.52,2.1,24.28,6.29c5.75,4.19,8.62,10.12,8.62,17.79c0,5.08-1.18,9.36-3.54,12.84
				s-5.57,6.11-9.63,7.89c-4.06,1.79-8.5,2.68-13.31,2.68l2.27-3.21c5.97,0,11.13,0.91,15.45,2.74c4.33,1.83,7.69,4.55,10.09,8.16
				c2.41,3.61,3.62,8.09,3.62,13.44c0,7.94-2.92,14.09-8.77,18.46c-5.83,4.37-14.64,6.56-26.42,6.56H568.59z M578.49,1003.92h33.03
				c8.21,0,14.49-1.4,18.86-4.21c4.37-2.81,6.56-7.29,6.56-13.44c0-6.06-2.19-10.5-6.56-13.31c-4.36-2.81-10.65-4.21-18.86-4.21
				h-34.11v-8.16h30.9c7.5,0,13.31-1.43,17.46-4.28c4.15-2.85,6.22-7.09,6.22-12.71c0-5.7-2.07-9.97-6.22-12.77
				c-4.14-2.81-9.96-4.21-17.46-4.21h-29.82V1003.92z"/>
			<path d="M738.99,1012.09v-93.63h9.9v85.08h52.43v8.56H738.99z"/>
			<path d="M887.34,1012.09v-93.63h9.9v93.63H887.34z"/>
			<path d="M1023.1,1012.89c-6.96,0-13.62-1.14-19.99-3.41c-6.38-2.27-11.31-5.2-14.78-8.76l3.88-7.62c3.3,3.21,7.73,5.91,13.3,8.09
				c5.57,2.19,11.44,3.28,17.59,3.28c5.88,0,10.68-0.74,14.38-2.21c3.71-1.47,6.42-3.45,8.17-5.95c1.73-2.5,2.6-5.26,2.6-8.3
				c0-3.65-1.05-6.59-3.14-8.82c-2.09-2.23-4.84-3.99-8.22-5.29c-3.39-1.29-7.13-2.42-11.23-3.41c-4.1-0.98-8.21-2.03-12.31-3.14
				c-4.1-1.12-7.87-2.61-11.3-4.48c-3.43-1.88-6.2-4.35-8.29-7.43c-2.1-3.08-3.14-7.11-3.14-12.1c0-4.63,1.23-8.9,3.68-12.77
				c2.46-3.88,6.22-7,11.3-9.37c5.09-2.36,11.59-3.54,19.54-3.54c5.25,0,10.47,0.74,15.65,2.21c5.17,1.47,9.63,3.5,13.37,6.09
				l-3.34,7.89c-4.02-2.68-8.27-4.63-12.77-5.89c-4.51-1.24-8.85-1.87-13.04-1.87c-5.62,0-10.26,0.76-13.91,2.27
				c-3.66,1.52-6.36,3.55-8.09,6.09c-1.74,2.54-2.61,5.42-2.61,8.63c0,3.66,1.04,6.6,3.14,8.82c2.09,2.23,4.86,3.97,8.29,5.22
				c3.43,1.25,7.2,2.36,11.3,3.34c4.1,0.98,8.19,2.05,12.24,3.21c4.05,1.16,7.8,2.66,11.23,4.48c3.43,1.83,6.2,4.26,8.29,7.29
				c2.1,3.03,3.14,7.01,3.14,11.91c0,4.55-1.25,8.76-3.74,12.64c-2.5,3.88-6.31,7-11.44,9.36
				C1037.7,1011.71,1031.13,1012.89,1023.1,1012.89z"/>
			<path d="M1149.1,1012.09v-93.63h9.9v93.63H1149.1z M1157.94,968.88v-8.69h60.59v8.69H1157.94z M1217.59,1012.09v-93.63h9.76
				v93.63H1217.59z"/>
			<path d="M1327.41,1012.09v-93.63h9.9v93.63H1327.41z"/>
			<path d="M1437.36,1012.09v-93.63h8.16l64.61,81.33h-4.28v-81.33h9.76v93.63h-8.17l-64.47-81.33h4.29v81.33H1437.36z"/>
			<path d="M1656.73,1012.89c-7.14,0-13.71-1.18-19.73-3.55c-6.02-2.36-11.24-5.68-15.66-9.97c-4.41-4.28-7.85-9.31-10.3-15.11
				c-2.46-5.8-3.68-12.12-3.68-18.99c0-6.87,1.22-13.19,3.68-18.99c2.45-5.8,5.9-10.83,10.36-15.11c4.46-4.28,9.7-7.6,15.71-9.97
				c6.03-2.36,12.6-3.54,19.73-3.54c7.14,0,13.67,1.11,19.6,3.34c5.92,2.23,10.98,5.62,15.18,10.16l-6.15,6.28
				c-3.93-3.92-8.25-6.73-12.98-8.42c-4.73-1.69-9.81-2.54-15.25-2.54c-5.8,0-11.13,0.96-15.98,2.88c-4.86,1.92-9.1,4.63-12.7,8.16
				c-3.62,3.53-6.42,7.62-8.43,12.31c-2.01,4.68-3.01,9.83-3.01,15.45c0,5.53,1,10.66,3.01,15.38c2,4.73,4.81,8.85,8.43,12.37
				c3.61,3.53,7.85,6.25,12.7,8.16c4.86,1.92,10.14,2.87,15.85,2.87c5.35,0,10.41-0.8,15.18-2.41c4.77-1.6,9.16-4.32,13.18-8.16
				l5.61,7.49c-4.46,3.93-9.68,6.89-15.65,8.9C1669.47,1011.89,1663.23,1012.89,1656.73,1012.89z M1691.1,1000.98l-9.49-1.2v-34.51
				h9.49V1000.98z"/>
		</g>
	</g>
	<g>
		<path class="st1" d="M571.65,185.3c21.42,53.22,42.84,106.44,64.26,159.67c-38.34-68.87-76.68-137.74-115.02-206.6
			c207.22,41.27,411.27,66.31,552.27,238.03c-71.08-54.73-150.66-95.04-236.65-120.91C751.97,230.04,665.81,210,571.65,185.3z"/>
		<path class="st2" d="M1092.19,325.24c-66.74-39.73-130.04-82.77-197.99-116.23c-48.93-24.01-103.58-37.83-156.89-51.2
			c-1.29-0.37-3.29-0.78-5.67-1.45l3.16-82.14C877.02,129.28,1004.15,197.81,1092.19,325.24z"/>
		<path class="st1" d="M1100.4,291.07c-41.23-39.72-77.78-77.57-117.33-111.96c-23.49-20.43-50.98-36.65-77.97-52.46
			c-12.98-7.59-22.66-13.24-29.62-18.52L878.26,36C977.54,99.43,1056.99,175.96,1100.4,291.07z"/>
		<path class="st1" d="M1675.04,227.73c-17.75,52.29-35.51,104.58-53.26,156.87c35.82-66.59,71.65-133.18,107.47-199.77
			c-209.78,25.23-415.15,34.53-568.92,194.91c75.07-49.11,157.51-83.19,245.23-102.38C1491.81,258.5,1579.26,245.12,1675.04,227.73z
			"/>
		<path class="st2" d="M1145.29,327.28c69.59-34.48,136.01-72.54,206.34-100.68c50.63-20.18,106.18-29.76,160.36-39
			c1.31-0.27,3.34-0.52,5.77-1.01l3.16-82.14C1374.87,148.42,1242.85,206.99,1145.29,327.28z"/>
		<path class="st1" d="M1139.73,292.58c44.16-36.44,83.51-71.37,125.58-102.62c24.99-18.56,53.64-32.62,81.76-46.32
			c13.53-6.57,23.61-11.46,30.95-16.19l2.77-72.13C1276.94,110.94,1191.85,181.15,1139.73,292.58z"/>
	</g>
</g>
</svg>
