<svg width="57" height="41" viewBox="0 0 57 41" fill="none" xmlns="http://www.w3.org/2000/svg">
<path d="M23.1618 21.2084C16.5594 27.8176 10.0852 34.4915 3.38311 41C3.19793 40.8993 3.01987 40.849 2.90591 40.7339C2.02274 39.8637 1.15382 38.9791 0.284893 38.0945C0.178058 37.9867 0.128202 37.8356 0 37.6271C7.59952 29.745 15.313 21.9851 23.1618 14.29C26.0321 16.9077 28.646 19.6909 31.3525 22.3663C36.7868 16.8646 42.2069 11.3773 47.6484 5.86125C46.9219 5.01263 45.9675 4.29346 45.2838 3.23627C45.5758 3.11402 45.7966 2.99895 46.0245 2.92703C48.8236 2.14313 51.6226 1.35924 54.4217 0.582529C55.1197 0.388353 55.8177 0.20856 56.5228 0.0359586C56.6724 0 56.8362 0.00719172 56.9929 0C57.0712 0.66883 54.1653 11.5139 53.8092 11.8735C52.8477 11.2047 52.0998 10.277 51.2167 9.45711C44.6071 16.0591 38.1187 22.769 31.3739 29.2991C28.5036 26.6957 25.9039 23.8981 23.1618 21.2084Z" fill="#080168"/>
</svg>
