<svg width="54" height="48" viewBox="0 0 54 48" fill="none" xmlns="http://www.w3.org/2000/svg">
<g clip-path="url(#clip0_213_95)">
<path d="M48.0125 25.1377C48.6617 24.4764 49.3108 23.8152 49.9711 23.1652C50.7993 22.3471 51.773 22.1342 52.6683 22.5488C54.112 23.21 54.4702 25.0368 53.3398 26.1911C51.6722 27.9058 49.9711 29.5757 48.2811 31.2679C47.9566 31.593 47.632 31.9292 47.2963 32.2542C46.3114 33.1956 45.002 33.2628 44.0395 32.3214C41.9802 30.3153 39.9545 28.2757 37.9512 26.2248C37.0111 25.2609 37.0559 23.8376 37.9624 22.9635C38.8801 22.0893 40.2455 22.1342 41.2192 23.098C41.8907 23.7704 42.5398 24.4652 43.1889 25.1489C43.2337 25.1265 43.2784 25.104 43.312 25.0816C43.312 24.2523 43.3904 23.423 43.3008 22.6049C42.4391 14.4909 38.2422 8.82013 30.6878 5.79421C23.3796 2.86916 14.6724 5.13299 9.46829 11.0615C6.93896 13.9418 5.33855 17.2591 4.75658 21.0359C3.54788 28.8472 7.21876 36.6362 14.0121 40.7043C17.0227 42.5087 20.2907 43.4389 23.7937 43.4501C25.8418 43.4613 26.7819 45.4898 25.8641 46.9243C25.3941 47.6639 24.7002 48.0001 23.8384 47.9889C18.9141 47.9329 14.3815 46.5881 10.3524 43.7414C4.75658 39.7965 1.36549 34.4171 0.291089 27.6481C-1.26456 17.8979 3.5143 8.06925 12.0983 3.19417C16.5974 0.627741 21.4546 -0.492969 26.5692 0.201871C36.3843 1.52431 43.0658 6.93734 46.58 16.2168C47.5313 18.7384 47.8894 21.3833 47.8894 24.073C47.8894 24.4092 47.8894 24.7454 47.8894 25.0816C47.9342 25.0928 47.9678 25.1153 48.0125 25.1377Z" fill="#080168"/>
</g>
<defs>
<clipPath id="clip0_213_95">
<rect width="54" height="48" fill="white"/>
</clipPath>
</defs>
</svg>
