<?xml version="1.0" encoding="utf-8"?>
<!-- Generator: Adobe Illustrator 24.0.0, SVG Export Plug-In . SVG Version: 6.00 Build 0)  -->
<svg version="1.1" id="Layer_1" xmlns="http://www.w3.org/2000/svg" xmlns:xlink="http://www.w3.org/1999/xlink" x="0px" y="0px"
	 viewBox="0 0 1920 1080" style="enable-background:new 0 0 1920 1080;" xml:space="preserve">
<style type="text/css">
	.st0{fill:#FFFFFF;}
</style>
<path class="st0" d="M1025.38,69.39c91.26,21.49,176.42,68.57,242.11,138.58c70.05,74.64,115.76,171.54,127.65,279.4
	c12.83,116.46-15.06,222.16-77.92,319.84c-4.31,6.7-8.65,13.38-12.8,19.78c63.83,63.01,127.01,125.39,190.2,187.77
	c-1.57,2.43-3.15,4.87-4.72,7.3c-8.39,0.45-16.78,1.29-25.17,1.29c-182.42,0.07-364.84,0.21-547.26,0.02
	c-217.48-0.23-421.95-153.04-475.63-366.06c-4.61-18.3-8.19-36.85-11.46-55.42c-10.89-61.82-2.73-122.51,12.57-182.98
	c12.88-50.93,34.17-99.66,62.77-143.72C616.14,105.07,827.69,22.85,1025.38,69.39z M723.85,765.11
	c-0.37,21.41,16.85,32.48,38.24,21.76c39.85-19.98,79.79-40.02,118.15-62.63c22.61-13.33,41.02-14.4,64.03-0.65
	c37.45,22.39,76.54,42.18,115.82,61.28c8.85,4.3,24.61,5.52,31.16,0.44c6.77-5.25,9.7-20.41,8.24-30.36
	c-6.54-44.76-15.18-89.21-23.17-133.75c-3.32-18.5-0.63-33.43,15.05-47.44c33.9-30.3,66.19-62.46,97.9-95.05
	c7.17-7.37,15.14-22.08,12.23-29.04c-3.73-8.9-17.42-17.16-28.03-19.08c-47.29-8.55-95.17-13.89-142.46-22.45
	c-10.18-1.84-22.67-10.14-27.48-19.02c-22.03-40.66-40.84-83.05-62.81-123.74c-6-11.12-18.19-24.1-29.06-25.66
	c-7.66-1.1-20.78,14.14-26.46,24.74c-21,39.21-40.39,79.3-59.37,119.53c-7.44,15.76-16.12,24.12-35.44,26.03
	c-45.13,4.46-90.03,12-134.64,20.32c-11.65,2.17-26.6,9.42-31.23,18.7c-3.33,6.68,5.51,22.93,13.15,30.88
	c29.65,30.85,59.92,61.32,92.11,89.48c19.36,16.94,23.47,34.18,18.31,58.44C738.5,672.95,731.88,718.68,723.85,765.11z"/>
</svg>
