<?xml version="1.0" encoding="utf-8"?>
<!-- Generator: Adobe Illustrator 24.0.0, SVG Export Plug-In . SVG Version: 6.00 Build 0)  -->
<svg version="1.1" id="Layer_1" xmlns="http://www.w3.org/2000/svg" xmlns:xlink="http://www.w3.org/1999/xlink" x="0px" y="0px"
	 viewBox="0 0 1920 1080" style="enable-background:new 0 0 1920 1080;" xml:space="preserve">
<style type="text/css">
	.st0{fill:#FFFFFF;}
</style>
<g>
	<path class="st0" d="M968.6,766.81c-92.03,65.58-184.07,131.15-285.95,203.74c37.21-114.74,71.16-219.41,106.32-327.85
		c-89.97-65.31-180.06-130.71-278.4-202.1c120.37,0,232.14,0,344.25,0c36.3-110.27,71.11-215.99,109.02-331.16
		c37.61,114.54,72.09,219.51,107.54,327.48c112.67,2.87,225.35,5.74,338.02,8.6c-146.19,106.25-292.38,212.5-438.56,318.75
		L968.6,766.81z"/>
	<path class="st0" d="M970.85,764.28c62.23-14.22,124.46-28.45,192.54-44c23.59,81.89,47.17,163.78,70.76,245.67
		c-88.52-66.38-177.03-132.76-265.55-199.14C968.6,766.81,970.85,764.28,970.85,764.28z"/>
</g>
</svg>
